<svg width="808" height="522" viewBox="0 0 808 522" fill="none" xmlns="http://www.w3.org/2000/svg">
<rect y="444" width="808" height="8" fill="#263238"/>
<path d="M444.166 165.797C442.916 206.728 448.284 256.036 427.969 293.428C412.073 322.675 381.993 340.885 351.473 351.714C284.372 375.523 193.137 372.33 152.483 304.419C136.286 277.277 137.258 223.434 168.865 206.057C185.062 197.195 203.573 196.27 221.528 192.868C245.083 188.426 262.714 176.672 275.001 156.078C299.042 115.818 297.214 84.8583 304.641 39.9004C306.053 31.5706 308.644 23.449 317.483 16.9934C325.464 10.2407 335.136 5.79273 345.457 4.12842C354.37 1.03745 363.907 0.194961 373.223 1.67576C393.099 5.28535 410.939 25.2538 425.563 37.9336C440.186 50.6135 446.665 63.5247 446.387 83.3081C446.225 110.82 444.999 138.308 444.166 165.797Z" fill="#263238"/>
<path d="M447.752 185.418C446.503 147.795 444.49 110.287 442.731 72.7106C442.731 72.4793 442.384 72.4561 442.384 72.7106C442.916 103.67 443.055 134.606 444.004 165.565C444.929 195.9 447.961 227.021 446.318 257.355C442.431 325.405 370.447 347.757 312.902 340.029C310.287 339.682 310.033 343.893 312.693 344.147C363.413 349.353 425.378 336.604 444.929 282.53C455.55 252.936 448.794 216.215 447.752 185.418Z" fill="#263238"/>
<path d="M308.367 36.5916C308.34 36.4609 308.269 36.3433 308.166 36.2589C308.062 36.1744 307.933 36.1283 307.8 36.1283C307.666 36.1283 307.537 36.1744 307.434 36.2589C307.33 36.3433 307.259 36.4609 307.233 36.5916C302.605 73.8445 300.87 117.576 277.153 148.628C265.424 163.813 249.383 175.104 231.131 181.022C216.669 185.649 201.745 185.025 186.844 186.806C128.627 193.748 122.056 271.146 161.577 304.534C162.386 305.229 163.636 303.84 162.826 303.077C135.268 277.462 128.813 234.217 155.121 204.831C176.223 181.253 212.504 192.012 239.715 180.489C296.103 156.611 305.382 90.9437 308.367 36.5916Z" fill="#263238"/>
<path d="M314.359 195.391C253.899 256.684 177.843 385.635 192.003 411.758C207.807 440.889 292.008 354.953 291.684 349.932C291.429 346.137 321.069 267.814 343.537 210.847C366.004 153.88 329.33 180.142 314.359 195.391Z" fill="#F7A9A0"/>
<path d="M292.239 349.932C294.831 341.556 335.138 238.289 346.661 205.618C358.184 172.946 347.494 162.858 314.591 192.776C281.688 222.694 209.543 322.605 193.091 375.569C177.218 426.659 203.527 426.659 238.234 403.104C266.648 383.922 292.239 349.932 292.239 349.932Z" fill="#008A5D"/>
<path d="M350.988 187.986C350.988 188.588 350.872 189.189 350.779 189.837C350.585 190.117 350.325 190.345 350.023 190.502C349.721 190.659 349.385 190.741 349.044 190.74C348.667 190.739 348.297 190.634 347.976 190.438C347.654 190.242 347.392 189.961 347.219 189.626C347.046 189.291 346.968 188.915 346.994 188.539C347.02 188.163 347.149 187.801 347.366 187.493C347.584 187.185 347.882 186.942 348.227 186.792C348.573 186.642 348.953 186.589 349.327 186.64C349.7 186.691 350.053 186.843 350.346 187.081C350.638 187.318 350.861 187.631 350.988 187.986ZM282.382 231.209C281.968 231.204 281.563 231.323 281.217 231.55C280.871 231.777 280.6 232.102 280.44 232.484C280.279 232.865 280.236 233.286 280.316 233.692C280.395 234.098 280.594 234.471 280.887 234.764C281.179 235.056 281.553 235.255 281.959 235.335C282.365 235.414 282.785 235.371 283.167 235.211C283.548 235.05 283.873 234.78 284.1 234.434C284.327 234.088 284.446 233.682 284.442 233.268C284.442 232.722 284.225 232.198 283.838 231.812C283.452 231.426 282.928 231.209 282.382 231.209ZM315.702 231.209C315.289 231.209 314.885 231.331 314.542 231.561C314.199 231.791 313.932 232.118 313.775 232.5C313.619 232.882 313.579 233.301 313.661 233.706C313.743 234.111 313.944 234.482 314.237 234.772C314.531 235.062 314.904 235.259 315.31 235.336C315.715 235.414 316.135 235.37 316.515 235.208C316.895 235.047 317.218 234.777 317.444 234.431C317.67 234.086 317.789 233.681 317.784 233.268C317.784 232.996 317.73 232.726 317.625 232.475C317.52 232.223 317.366 231.995 317.173 231.804C316.979 231.612 316.749 231.461 316.497 231.359C316.244 231.257 315.974 231.206 315.702 231.209ZM299.042 209.852C298.629 209.852 298.226 209.975 297.883 210.205C297.54 210.434 297.273 210.761 297.116 211.143C296.959 211.525 296.919 211.945 297.001 212.349C297.084 212.754 297.284 213.125 297.578 213.415C297.871 213.705 298.245 213.902 298.65 213.98C299.055 214.057 299.475 214.013 299.855 213.852C300.235 213.69 300.559 213.42 300.785 213.074C301.011 212.729 301.129 212.324 301.124 211.911C301.124 211.639 301.07 211.369 300.965 211.118C300.86 210.866 300.707 210.638 300.513 210.447C300.319 210.255 300.09 210.104 299.837 210.002C299.585 209.9 299.314 209.849 299.042 209.852ZM332.384 209.852C331.971 209.847 331.565 209.966 331.219 210.193C330.873 210.42 330.602 210.745 330.442 211.127C330.281 211.508 330.238 211.929 330.318 212.335C330.397 212.741 330.596 213.114 330.889 213.407C331.181 213.699 331.555 213.898 331.961 213.978C332.367 214.058 332.787 214.014 333.169 213.854C333.55 213.693 333.875 213.423 334.102 213.077C334.329 212.731 334.448 212.325 334.444 211.911C334.444 211.365 334.227 210.841 333.841 210.455C333.454 210.069 332.931 209.852 332.384 209.852ZM249.086 275.796C248.672 275.792 248.267 275.911 247.921 276.138C247.575 276.365 247.304 276.69 247.144 277.071C246.983 277.453 246.94 277.873 247.02 278.279C247.099 278.686 247.298 279.059 247.591 279.351C247.883 279.644 248.256 279.843 248.662 279.922C249.069 280.002 249.489 279.959 249.871 279.798C250.252 279.638 250.577 279.367 250.804 279.021C251.031 278.675 251.15 278.27 251.145 277.856C251.145 277.583 251.091 277.314 250.986 277.062C250.882 276.811 250.728 276.583 250.534 276.391C250.34 276.2 250.111 276.049 249.858 275.946C249.606 275.844 249.335 275.793 249.063 275.796H249.086ZM282.405 275.796C281.992 275.792 281.586 275.911 281.24 276.138C280.894 276.365 280.623 276.69 280.463 277.071C280.302 277.453 280.259 277.873 280.339 278.279C280.418 278.686 280.617 279.059 280.91 279.351C281.202 279.644 281.576 279.843 281.982 279.922C282.388 280.002 282.808 279.959 283.19 279.798C283.571 279.638 283.896 279.367 284.123 279.021C284.35 278.675 284.469 278.27 284.465 277.856C284.465 277.583 284.411 277.314 284.306 277.062C284.201 276.811 284.047 276.583 283.853 276.391C283.66 276.2 283.43 276.049 283.177 275.946C282.925 275.844 282.655 275.793 282.382 275.796H282.405ZM315.725 275.796C315.312 275.796 314.908 275.919 314.565 276.149C314.222 276.379 313.956 276.706 313.799 277.087C313.642 277.469 313.602 277.889 313.684 278.294C313.766 278.698 313.967 279.069 314.261 279.36C314.554 279.65 314.927 279.846 315.333 279.924C315.738 280.002 316.158 279.957 316.538 279.796C316.918 279.635 317.241 279.364 317.468 279.019C317.694 278.673 317.812 278.269 317.807 277.856C317.807 277.581 317.752 277.31 317.646 277.057C317.54 276.804 317.384 276.575 317.188 276.383C316.992 276.191 316.759 276.04 316.504 275.94C316.249 275.839 315.976 275.79 315.702 275.796H315.725ZM265.746 254.44C265.332 254.435 264.926 254.554 264.58 254.781C264.234 255.008 263.964 255.333 263.803 255.715C263.643 256.096 263.6 256.517 263.679 256.923C263.759 257.329 263.958 257.702 264.25 257.995C264.543 258.287 264.916 258.486 265.322 258.566C265.728 258.645 266.149 258.602 266.53 258.442C266.912 258.281 267.237 258.011 267.464 257.665C267.691 257.319 267.81 256.913 267.805 256.499C267.805 256.227 267.751 255.957 267.646 255.706C267.541 255.454 267.387 255.226 267.194 255.035C267 254.843 266.77 254.692 266.518 254.59C266.265 254.488 265.995 254.437 265.723 254.44H265.746ZM299.065 254.44C298.652 254.44 298.249 254.562 297.906 254.792C297.563 255.022 297.296 255.349 297.139 255.731C296.982 256.113 296.942 256.532 297.024 256.937C297.107 257.342 297.307 257.713 297.601 258.003C297.894 258.293 298.268 258.49 298.673 258.567C299.079 258.645 299.498 258.601 299.878 258.439C300.258 258.278 300.582 258.008 300.808 257.662C301.034 257.317 301.152 256.912 301.148 256.499C301.148 256.225 301.093 255.953 300.986 255.7C300.88 255.447 300.724 255.218 300.528 255.026C300.332 254.834 300.099 254.684 299.844 254.583C299.589 254.482 299.316 254.434 299.042 254.44H299.065ZM249.063 320.338C248.649 320.333 248.243 320.452 247.897 320.679C247.551 320.906 247.281 321.231 247.12 321.613C246.96 321.994 246.917 322.415 246.996 322.821C247.076 323.227 247.275 323.6 247.567 323.893C247.86 324.185 248.233 324.384 248.639 324.464C249.045 324.543 249.466 324.5 249.847 324.34C250.229 324.179 250.554 323.909 250.781 323.563C251.008 323.217 251.127 322.811 251.122 322.397C251.122 321.851 250.905 321.327 250.519 320.941C250.133 320.555 249.609 320.338 249.063 320.338ZM282.382 320.338C281.968 320.333 281.563 320.452 281.217 320.679C280.871 320.906 280.6 321.231 280.44 321.613C280.279 321.994 280.236 322.415 280.316 322.821C280.395 323.227 280.594 323.6 280.887 323.893C281.179 324.185 281.553 324.384 281.959 324.464C282.365 324.543 282.785 324.5 283.167 324.34C283.548 324.179 283.873 323.909 284.1 323.563C284.327 323.217 284.446 322.811 284.442 322.397C284.442 321.851 284.225 321.327 283.838 320.941C283.452 320.555 282.928 320.338 282.382 320.338ZM232.403 299.027C231.99 299.027 231.587 299.15 231.244 299.38C230.901 299.61 230.634 299.937 230.477 300.318C230.32 300.7 230.28 301.12 230.363 301.525C230.445 301.929 230.646 302.3 230.939 302.591C231.233 302.881 231.606 303.077 232.011 303.155C232.417 303.233 232.836 303.188 233.216 303.027C233.596 302.866 233.92 302.595 234.146 302.25C234.372 301.904 234.49 301.5 234.486 301.087C234.486 300.814 234.432 300.545 234.327 300.293C234.222 300.042 234.068 299.814 233.874 299.622C233.681 299.431 233.451 299.28 233.198 299.177C232.946 299.075 232.676 299.024 232.403 299.027ZM265.746 299.027C265.332 299.023 264.926 299.142 264.58 299.369C264.234 299.596 263.964 299.921 263.803 300.302C263.643 300.684 263.6 301.104 263.679 301.51C263.759 301.916 263.958 302.29 264.25 302.582C264.543 302.875 264.916 303.074 265.322 303.153C265.728 303.233 266.149 303.19 266.53 303.029C266.912 302.869 267.237 302.598 267.464 302.252C267.691 301.906 267.81 301.501 267.805 301.087C267.805 300.814 267.751 300.545 267.646 300.293C267.541 300.042 267.387 299.814 267.194 299.622C267 299.431 266.77 299.28 266.518 299.177C266.265 299.075 265.995 299.024 265.723 299.027H265.746ZM299.065 299.027C298.652 299.027 298.249 299.15 297.906 299.38C297.563 299.61 297.296 299.937 297.139 300.318C296.982 300.7 296.942 301.12 297.024 301.525C297.107 301.929 297.307 302.3 297.601 302.591C297.894 302.881 298.268 303.077 298.673 303.155C299.079 303.233 299.498 303.188 299.878 303.027C300.258 302.866 300.582 302.595 300.808 302.25C301.034 301.904 301.152 301.5 301.148 301.087C301.148 300.812 301.093 300.541 300.986 300.288C300.88 300.035 300.724 299.806 300.528 299.614C300.332 299.422 300.099 299.271 299.844 299.171C299.589 299.07 299.316 299.021 299.042 299.027H299.065ZM215.767 364.972C215.36 364.976 214.965 365.101 214.629 365.33C214.293 365.559 214.033 365.882 213.881 366.259C213.728 366.636 213.691 367.049 213.773 367.447C213.855 367.845 214.053 368.21 214.342 368.495C214.631 368.781 214.998 368.975 215.397 369.052C215.795 369.13 216.208 369.088 216.583 368.931C216.958 368.775 217.278 368.511 217.504 368.173C217.729 367.835 217.849 367.437 217.849 367.031C217.849 366.755 217.794 366.481 217.686 366.227C217.578 365.972 217.42 365.742 217.222 365.55C217.023 365.358 216.788 365.208 216.53 365.108C216.272 365.009 215.997 364.963 215.72 364.972H215.767ZM249.109 364.972C248.702 364.972 248.304 365.093 247.965 365.319C247.626 365.545 247.363 365.867 247.207 366.243C247.051 366.619 247.01 367.033 247.089 367.433C247.169 367.832 247.365 368.199 247.653 368.487C247.941 368.775 248.308 368.971 248.707 369.051C249.107 369.13 249.521 369.09 249.897 368.934C250.274 368.778 250.595 368.514 250.821 368.175C251.048 367.837 251.169 367.438 251.169 367.031C251.169 366.757 251.114 366.485 251.007 366.232C250.901 365.979 250.745 365.75 250.549 365.558C250.353 365.367 250.12 365.216 249.865 365.115C249.61 365.014 249.337 364.966 249.063 364.972H249.109ZM232.403 343.615C231.99 343.615 231.587 343.738 231.244 343.968C230.901 344.198 230.634 344.524 230.477 344.906C230.32 345.288 230.28 345.708 230.363 346.112C230.445 346.517 230.646 346.888 230.939 347.178C231.233 347.469 231.606 347.665 232.011 347.743C232.417 347.821 232.836 347.776 233.216 347.615C233.596 347.454 233.92 347.183 234.146 346.838C234.372 346.492 234.49 346.087 234.486 345.674C234.486 345.402 234.432 345.132 234.327 344.881C234.222 344.63 234.068 344.402 233.874 344.21C233.681 344.018 233.451 343.867 233.198 343.765C232.946 343.663 232.676 343.612 232.403 343.615ZM265.746 343.615C265.332 343.611 264.926 343.729 264.58 343.956C264.234 344.183 263.964 344.508 263.803 344.89C263.643 345.271 263.6 345.692 263.679 346.098C263.759 346.504 263.958 346.877 264.25 347.17C264.543 347.463 264.916 347.661 265.322 347.741C265.728 347.821 266.149 347.777 266.53 347.617C266.912 347.456 267.237 347.186 267.464 346.84C267.691 346.494 267.81 346.088 267.805 345.674C267.805 345.402 267.751 345.132 267.646 344.881C267.541 344.63 267.387 344.402 267.194 344.21C267 344.018 266.77 343.867 266.518 343.765C266.265 343.663 265.995 343.612 265.723 343.615H265.746ZM215.744 409.56C215.337 409.564 214.942 409.689 214.606 409.918C214.27 410.147 214.01 410.47 213.858 410.847C213.705 411.223 213.668 411.637 213.75 412.035C213.832 412.433 214.03 412.797 214.319 413.083C214.608 413.369 214.975 413.563 215.373 413.64C215.772 413.718 216.185 413.676 216.56 413.519C216.935 413.363 217.255 413.099 217.481 412.761C217.706 412.422 217.826 412.025 217.826 411.619C217.826 411.345 217.771 411.073 217.665 410.82C217.559 410.567 217.403 410.338 217.207 410.146C217.011 409.954 216.778 409.804 216.523 409.703C216.268 409.602 215.995 409.553 215.72 409.56H215.744ZM199.084 388.203C198.67 388.198 198.264 388.317 197.918 388.544C197.572 388.771 197.302 389.096 197.141 389.478C196.981 389.859 196.938 390.28 197.017 390.686C197.097 391.092 197.296 391.465 197.588 391.758C197.881 392.05 198.254 392.249 198.66 392.329C199.066 392.408 199.487 392.365 199.869 392.205C200.25 392.044 200.575 391.774 200.802 391.428C201.029 391.082 201.148 390.676 201.143 390.262C201.143 389.99 201.089 389.72 200.984 389.469C200.879 389.217 200.726 388.989 200.532 388.798C200.338 388.606 200.109 388.455 199.856 388.353C199.603 388.251 199.333 388.2 199.061 388.203H199.084ZM232.403 388.203C231.99 388.203 231.587 388.326 231.244 388.555C230.901 388.785 230.634 389.112 230.477 389.494C230.32 389.876 230.28 390.296 230.363 390.7C230.445 391.105 230.646 391.476 230.939 391.766C231.233 392.056 231.606 392.253 232.011 392.331C232.417 392.408 232.836 392.364 233.216 392.203C233.596 392.041 233.92 391.771 234.146 391.425C234.372 391.08 234.49 390.675 234.486 390.262C234.486 389.99 234.432 389.72 234.327 389.469C234.222 389.217 234.068 388.989 233.874 388.798C233.681 388.606 233.451 388.455 233.198 388.353C232.946 388.251 232.676 388.2 232.403 388.203Z" fill="white"/>
<path d="M268.337 443.758L274.377 407.547L283.053 343.291C283.053 343.291 262.622 307.612 274.469 282.021C280.462 269.04 332.963 188.449 355.037 172.252C375.862 157.189 405.942 173.316 417.094 185.094C460.271 230.538 480.632 320.778 496.135 443.689L268.337 443.758Z" fill="#F7A9A0"/>
<path d="M275.903 396.186L283.053 343.314C283.053 343.314 262.622 307.635 274.469 282.021C280.462 269.04 332.963 188.449 355.037 172.252C375.861 157.212 405.941 173.316 417.094 185.117C454.486 224.452 474.778 297.431 489.61 396.116L275.903 396.186Z" fill="#008A5D"/>
<path d="M364.524 342.227C354.444 341.344 344.312 341.212 334.212 341.833C329.215 342.204 324.24 342.805 319.265 343.523C316.789 343.87 314.313 344.147 311.814 344.402C309.218 344.726 306.591 344.726 303.994 344.402C303.966 344.391 303.936 344.388 303.906 344.392C303.876 344.395 303.848 344.406 303.824 344.423C303.799 344.44 303.779 344.463 303.765 344.49C303.751 344.516 303.744 344.545 303.744 344.575C303.744 344.605 303.751 344.635 303.765 344.661C303.779 344.688 303.799 344.71 303.824 344.727C303.848 344.744 303.876 344.755 303.906 344.759C303.936 344.763 303.966 344.759 303.994 344.749C306.41 345.305 308.86 345.699 311.329 345.929C313.724 346.091 316.129 346.091 318.525 345.929C323.615 345.605 328.682 345.027 333.773 344.656C344.023 343.87 354.273 343.106 364.57 343.06C364.68 343.054 364.784 343.004 364.858 342.921C364.932 342.839 364.969 342.731 364.963 342.62C364.957 342.51 364.907 342.406 364.825 342.332C364.743 342.259 364.634 342.221 364.524 342.227Z" fill="#263238"/>
<path d="M387.431 355.369C379.414 353.057 371.271 351.203 363.043 349.816C358.925 349.122 354.806 348.705 350.641 348.358C348.651 348.196 346.661 348.081 344.671 347.988C342.681 347.896 340.275 347.988 338.077 347.988C337.845 347.988 337.776 348.312 338.077 348.335C340.136 348.544 342.172 349.076 344.209 349.4L350.363 350.325C354.482 350.95 358.601 351.621 362.719 352.223C370.957 353.403 379.171 354.652 387.362 356.11C387.801 356.133 387.894 355.485 387.431 355.369Z" fill="#263238"/>
<path d="M274.376 407.547C275.533 396.81 276.69 386.051 278.055 375.338C279.421 364.625 280.601 353.865 282.035 343.152L282.243 343.916C279.172 339.543 276.646 334.811 274.723 329.825C272.751 324.881 271.324 319.737 270.466 314.484C269.633 309.213 269.401 303.865 269.772 298.542C270.372 293.227 271.696 288.019 273.705 283.062C277.705 273.333 282.674 264.03 288.537 255.296C294.259 246.493 300.502 238.04 307.233 229.983C301.009 238.405 295.178 247.128 289.717 256.036C284.213 264.859 279.497 274.151 275.626 283.802C273.723 288.584 272.493 293.607 271.97 298.727C271.681 303.868 271.937 309.026 272.734 314.114C273.519 319.22 274.861 324.224 276.737 329.038C278.543 333.864 280.936 338.449 283.863 342.69L284.095 343.037V343.43C282.66 354.143 280.971 364.81 279.467 375.523C277.963 386.236 276.112 396.88 274.376 407.547Z" fill="#263238"/>
<path d="M289.717 255.25C289.839 253.81 290.127 252.389 290.573 251.015C290.996 249.645 291.498 248.301 292.077 246.989C292.656 245.693 293.257 244.398 293.952 243.148C294.643 241.888 295.416 240.675 296.265 239.516C295.386 242.269 294.252 244.86 293.142 247.452C292.031 250.043 290.805 252.589 289.717 255.25Z" fill="#263238"/>
<path d="M192.004 411.665C205.609 431.148 242.654 434.804 335.092 452.967C347.864 455.466 389.744 369.97 376.301 366.615C359.271 362.357 292.286 349.539 287.264 349.215C244.944 346.508 182.771 398.476 192.004 411.665Z" fill="#F7A9A0"/>
<path d="M357.814 362.38C357.814 362.38 396.987 368.281 416.585 377.767C442.847 390.447 460.294 412.221 467.05 421.73C481.165 441.699 501.48 499.707 485.769 508.476C471.585 516.413 453.815 456.068 453.815 456.068C453.815 456.068 482.09 514.608 463.232 521.017C444.375 527.427 427.715 456.23 427.715 456.23C427.715 456.23 455.481 517.014 434.934 520.555C419.454 523.239 400.736 459.562 400.736 459.562C400.736 459.562 424.175 511.993 408.371 515.418C390.902 519.328 369.961 461.482 369.961 461.482C328.312 463.449 307.673 447.345 294.345 434.156C291.129 431.009 357.814 362.38 357.814 362.38Z" fill="#F7A9A0"/>
<path d="M445.276 435.243C448.84 442 452.519 448.802 455.457 455.86C458.396 462.917 461.126 470.066 463.417 477.355C466.611 486.831 468.692 496.646 469.618 506.602C466.656 489.063 456.452 463.657 453.421 456.6C450.39 449.543 447.868 442.37 444.906 435.336C444.976 435.151 445.276 435.081 445.276 435.243Z" fill="#263238"/>
<path d="M419.663 445.447C423.851 454.286 428.339 462.894 432.134 471.895C435.929 480.895 438.705 489.711 441.852 498.92C442.107 499.614 441.644 499.522 441.366 498.805C437.849 489.734 433.893 481.636 430.283 472.589C426.673 463.542 423.342 454.402 419.454 445.54C419.385 445.401 419.616 445.285 419.663 445.447Z" fill="#263238"/>
<path d="M396.084 450.26C402.826 463.642 408.168 477.685 412.027 492.164C412.258 492.858 411.657 492.673 411.402 491.955C406.358 477.934 402.517 466.897 395.622 450.515C395.506 450.26 395.922 449.913 396.084 450.26Z" fill="#263238"/>
<path d="M439.793 392.669C444.359 395.636 448.621 399.047 452.519 402.85C456.477 406.602 460.129 410.664 463.44 414.997C465.13 417.149 466.634 419.417 468.207 421.661C469.78 423.905 471.146 426.289 472.326 428.603C474.94 433.39 477.064 438.429 478.665 443.643C477.3 441.329 476.352 438.76 474.848 436.47L472.904 432.929C472.233 431.773 471.493 430.616 470.798 429.505C467.948 424.941 464.859 420.531 461.543 416.293C458.304 412.035 454.81 407.94 451.2 403.983C449.372 401.993 447.521 400.05 445.601 398.152C443.68 396.255 441.806 394.497 439.793 392.669Z" fill="#263238"/>
<path d="M365.981 362.38L284.997 452.62C284.997 452.62 203.11 433.809 191.055 412.822C183.118 398.939 244.759 343.014 291.291 349.539L365.981 362.38Z" fill="#008A5D"/>
<path d="M251.122 367.031C251.127 367.445 251.008 367.851 250.781 368.197C250.554 368.543 250.229 368.813 249.848 368.974C249.466 369.134 249.046 369.177 248.64 369.098C248.233 369.018 247.86 368.819 247.568 368.527C247.275 368.234 247.076 367.861 246.997 367.455C246.917 367.049 246.96 366.628 247.121 366.247C247.281 365.865 247.552 365.54 247.898 365.313C248.244 365.086 248.649 364.967 249.063 364.972C249.609 364.972 250.133 365.189 250.519 365.575C250.906 365.961 251.122 366.485 251.122 367.031ZM282.383 364.972C281.975 364.972 281.577 365.093 281.238 365.319C280.9 365.545 280.636 365.867 280.48 366.243C280.324 366.619 280.283 367.033 280.363 367.433C280.442 367.832 280.638 368.199 280.926 368.487C281.214 368.775 281.581 368.971 281.981 369.051C282.38 369.13 282.794 369.09 283.171 368.934C283.547 368.778 283.868 368.514 284.095 368.175C284.321 367.837 284.442 367.438 284.442 367.031C284.442 366.485 284.225 365.961 283.839 365.575C283.452 365.189 282.929 364.972 282.383 364.972ZM315.702 364.972C315.296 364.976 314.9 365.101 314.564 365.33C314.228 365.559 313.968 365.882 313.816 366.259C313.663 366.636 313.626 367.049 313.708 367.447C313.79 367.845 313.988 368.21 314.277 368.495C314.566 368.781 314.933 368.975 315.332 369.052C315.73 369.13 316.143 369.088 316.518 368.931C316.893 368.775 317.213 368.511 317.439 368.173C317.664 367.835 317.784 367.437 317.784 367.031C317.784 366.759 317.73 366.489 317.625 366.238C317.52 365.986 317.367 365.758 317.173 365.567C316.979 365.375 316.75 365.224 316.497 365.122C316.244 365.02 315.974 364.969 315.702 364.972ZM349.044 364.972C348.637 364.972 348.239 365.093 347.9 365.319C347.562 365.545 347.298 365.867 347.142 366.243C346.986 366.619 346.945 367.033 347.024 367.433C347.104 367.832 347.3 368.199 347.588 368.487C347.876 368.775 348.243 368.971 348.643 369.051C349.042 369.13 349.456 369.09 349.832 368.934C350.209 368.778 350.53 368.514 350.757 368.175C350.983 367.837 351.104 367.438 351.104 367.031C351.104 366.485 350.887 365.961 350.5 365.575C350.114 365.189 349.59 364.972 349.044 364.972ZM215.721 409.56C215.314 409.564 214.919 409.689 214.583 409.918C214.247 410.147 213.987 410.47 213.835 410.847C213.682 411.223 213.645 411.637 213.727 412.035C213.809 412.433 214.007 412.797 214.296 413.083C214.585 413.369 214.952 413.562 215.351 413.64C215.749 413.718 216.162 413.676 216.537 413.519C216.912 413.363 217.232 413.099 217.458 412.76C217.683 412.422 217.803 412.025 217.803 411.619C217.803 411.346 217.749 411.077 217.644 410.825C217.539 410.574 217.386 410.346 217.192 410.154C216.998 409.963 216.768 409.812 216.516 409.71C216.263 409.607 215.993 409.556 215.721 409.56ZM249.063 409.56C248.656 409.56 248.258 409.68 247.919 409.907C247.58 410.133 247.316 410.454 247.161 410.831C247.005 411.207 246.964 411.621 247.043 412.021C247.123 412.42 247.319 412.787 247.607 413.075C247.895 413.363 248.262 413.559 248.661 413.639C249.061 413.718 249.475 413.677 249.851 413.521C250.228 413.366 250.549 413.102 250.775 412.763C251.002 412.424 251.122 412.026 251.122 411.619C251.122 411.073 250.906 410.549 250.519 410.163C250.133 409.776 249.609 409.56 249.063 409.56ZM282.383 409.56C281.975 409.56 281.577 409.68 281.238 409.907C280.9 410.133 280.636 410.454 280.48 410.831C280.324 411.207 280.283 411.621 280.363 412.021C280.442 412.42 280.638 412.787 280.926 413.075C281.214 413.363 281.581 413.559 281.981 413.639C282.38 413.718 282.794 413.677 283.171 413.521C283.547 413.366 283.868 413.102 284.095 412.763C284.321 412.424 284.442 412.026 284.442 411.619C284.442 411.073 284.225 410.549 283.839 410.163C283.452 409.776 282.929 409.56 282.383 409.56ZM315.702 409.56C315.296 409.564 314.9 409.689 314.564 409.918C314.228 410.147 313.968 410.47 313.816 410.847C313.663 411.223 313.626 411.637 313.708 412.035C313.79 412.433 313.988 412.797 314.277 413.083C314.566 413.369 314.933 413.562 315.332 413.64C315.73 413.718 316.143 413.676 316.518 413.519C316.893 413.363 317.213 413.099 317.439 412.76C317.664 412.422 317.784 412.025 317.784 411.619C317.784 411.346 317.73 411.077 317.625 410.825C317.52 410.574 317.367 410.346 317.173 410.154C316.979 409.963 316.75 409.812 316.497 409.71C316.244 409.607 315.974 409.556 315.702 409.56ZM232.404 388.203C231.991 388.203 231.587 388.326 231.244 388.555C230.901 388.785 230.634 389.112 230.477 389.494C230.321 389.876 230.281 390.296 230.363 390.7C230.445 391.105 230.646 391.476 230.939 391.766C231.233 392.056 231.606 392.253 232.012 392.33C232.417 392.408 232.837 392.364 233.217 392.202C233.597 392.041 233.92 391.771 234.146 391.425C234.372 391.08 234.491 390.675 234.486 390.262C234.486 389.99 234.432 389.72 234.327 389.469C234.222 389.217 234.068 388.989 233.875 388.798C233.681 388.606 233.451 388.455 233.199 388.353C232.946 388.251 232.676 388.2 232.404 388.203ZM265.746 388.203C265.332 388.198 264.926 388.317 264.58 388.544C264.234 388.771 263.964 389.096 263.803 389.478C263.643 389.859 263.6 390.28 263.679 390.686C263.759 391.092 263.958 391.465 264.25 391.758C264.543 392.05 264.916 392.249 265.322 392.329C265.728 392.408 266.149 392.365 266.53 392.205C266.912 392.044 267.237 391.774 267.464 391.428C267.691 391.082 267.81 390.676 267.805 390.262C267.805 389.99 267.751 389.72 267.646 389.469C267.541 389.217 267.388 388.989 267.194 388.798C267 388.606 266.771 388.455 266.518 388.353C266.266 388.251 265.995 388.2 265.723 388.203H265.746ZM299.065 388.203C298.652 388.203 298.249 388.326 297.906 388.555C297.563 388.785 297.296 389.112 297.139 389.494C296.982 389.876 296.942 390.296 297.025 390.7C297.107 391.105 297.308 391.476 297.601 391.766C297.895 392.056 298.268 392.253 298.673 392.33C299.079 392.408 299.498 392.364 299.878 392.202C300.258 392.041 300.582 391.771 300.808 391.425C301.034 391.08 301.152 390.675 301.148 390.262C301.148 389.988 301.093 389.716 300.987 389.463C300.88 389.21 300.724 388.981 300.528 388.789C300.332 388.597 300.1 388.447 299.844 388.346C299.589 388.245 299.316 388.197 299.042 388.203H299.065ZM332.408 388.203C331.994 388.198 331.588 388.317 331.242 388.544C330.896 388.771 330.626 389.096 330.465 389.478C330.305 389.859 330.262 390.28 330.341 390.686C330.421 391.092 330.62 391.465 330.912 391.758C331.205 392.05 331.578 392.249 331.984 392.329C332.39 392.408 332.811 392.365 333.192 392.205C333.574 392.044 333.899 391.774 334.126 391.428C334.353 391.082 334.472 390.676 334.467 390.262C334.467 389.99 334.413 389.72 334.308 389.469C334.203 389.217 334.049 388.989 333.856 388.798C333.662 388.606 333.432 388.455 333.18 388.353C332.927 388.251 332.657 388.2 332.385 388.203H332.408ZM232.404 432.791C231.991 432.791 231.587 432.913 231.244 433.143C230.901 433.373 230.634 433.7 230.477 434.081C230.321 434.463 230.281 434.883 230.363 435.288C230.445 435.692 230.646 436.063 230.939 436.354C231.233 436.644 231.606 436.84 232.012 436.918C232.417 436.996 232.837 436.951 233.217 436.79C233.597 436.629 233.92 436.358 234.146 436.013C234.372 435.667 234.491 435.263 234.486 434.85C234.486 434.577 234.432 434.308 234.327 434.056C234.222 433.805 234.068 433.577 233.875 433.385C233.681 433.194 233.451 433.043 233.199 432.941C232.946 432.838 232.676 432.787 232.404 432.791ZM265.746 432.791C265.332 432.786 264.926 432.905 264.58 433.132C264.234 433.359 263.964 433.684 263.803 434.065C263.643 434.447 263.6 434.867 263.679 435.273C263.759 435.68 263.958 436.053 264.25 436.345C264.543 436.638 264.916 436.837 265.322 436.916C265.728 436.996 266.149 436.953 266.53 436.792C266.912 436.632 267.237 436.361 267.464 436.015C267.691 435.669 267.81 435.264 267.805 434.85C267.805 434.577 267.751 434.308 267.646 434.056C267.541 433.805 267.388 433.577 267.194 433.385C267 433.194 266.771 433.043 266.518 432.941C266.266 432.838 265.995 432.787 265.723 432.791H265.746ZM299.088 432.791C298.536 432.791 298.006 433.01 297.616 433.4C297.225 433.791 297.006 434.321 297.006 434.873C297.006 435.145 297.06 435.415 297.165 435.666C297.27 435.918 297.424 436.146 297.617 436.337C297.811 436.529 298.041 436.68 298.293 436.782C298.546 436.884 298.816 436.935 299.088 436.932L301.125 434.618C301.068 434.111 300.827 433.642 300.447 433.301C300.068 432.96 299.576 432.77 299.065 432.767L299.088 432.791Z" fill="white"/>
<path d="M235.805 364.139C243.302 358.701 264.427 346.021 291.337 349.4C291.569 349.4 291.592 349.816 291.337 349.793C271.022 349.215 243.603 359.835 235.805 364.463C235.782 364.578 235.62 364.301 235.805 364.139Z" fill="#263238"/>
<path d="M262.877 437.441C271.253 427.052 280.161 417.126 289.116 407.223C298.07 397.319 307.002 387.37 316.211 377.675C321.394 372.191 326.577 366.684 331.968 361.478C332.107 361.339 332.361 361.478 332.246 361.709C323.893 372.075 314.984 382.071 306.122 392.021C297.26 401.97 288.236 411.873 279.166 421.684C274.029 427.214 268.8 432.652 263.409 437.881C263.131 438.136 262.645 437.742 262.877 437.441Z" fill="#263238"/>
<path d="M366.143 361.2C361.169 359.705 356.097 358.553 350.964 357.753C345.851 356.781 340.714 355.925 335.601 355.092C325.396 353.449 303.947 348.821 285.089 348.868C284.881 348.868 285.945 349.886 286.154 349.886C295.131 349.4 359.456 362.195 364.824 362.566C364.609 362.908 364.416 363.263 364.246 363.63C364.246 363.908 364.408 364.232 364.685 364.046C365.356 363.607 365.819 363.051 366.444 362.566C366.564 362.478 366.655 362.358 366.708 362.219C366.76 362.08 366.771 361.929 366.739 361.785C366.707 361.64 366.634 361.508 366.528 361.404C366.422 361.3 366.289 361.229 366.143 361.2Z" fill="#263238"/>
<path d="M431.856 190.763C509.231 258.258 570.085 341.648 566.059 362.496C558.771 401.322 507.75 403.752 499.93 395.353C468.6 361.409 435.535 295.649 399.717 222.277C367.717 156.703 406.381 168.573 431.856 190.763Z" fill="#008A5D"/>
<path d="M417.765 188.68C417.77 189.094 417.651 189.5 417.424 189.846C417.197 190.192 416.872 190.462 416.49 190.623C416.109 190.783 415.688 190.827 415.282 190.747C414.876 190.667 414.503 190.469 414.21 190.176C413.918 189.883 413.719 189.51 413.639 189.104C413.56 188.698 413.603 188.277 413.763 187.896C413.924 187.514 414.194 187.189 414.54 186.962C414.886 186.735 415.292 186.617 415.706 186.621C416.252 186.621 416.776 186.838 417.162 187.224C417.548 187.61 417.765 188.134 417.765 188.68ZM415.706 231.209C415.292 231.204 414.886 231.323 414.54 231.55C414.194 231.777 413.924 232.102 413.763 232.484C413.603 232.865 413.56 233.286 413.639 233.692C413.719 234.098 413.918 234.471 414.21 234.764C414.503 235.056 414.876 235.255 415.282 235.335C415.688 235.414 416.109 235.371 416.49 235.211C416.872 235.05 417.197 234.78 417.424 234.434C417.651 234.088 417.77 233.682 417.765 233.268C417.765 232.722 417.548 232.198 417.162 231.812C416.776 231.426 416.252 231.209 415.706 231.209ZM449.025 231.209C448.612 231.209 448.209 231.332 447.866 231.561C447.523 231.791 447.256 232.118 447.099 232.5C446.942 232.882 446.902 233.302 446.985 233.706C447.067 234.111 447.268 234.482 447.561 234.772C447.855 235.062 448.228 235.259 448.633 235.336C449.039 235.414 449.458 235.37 449.838 235.208C450.218 235.047 450.542 234.777 450.768 234.431C450.994 234.086 451.112 233.681 451.108 233.268C451.108 232.996 451.054 232.726 450.949 232.475C450.844 232.223 450.69 231.995 450.496 231.804C450.303 231.612 450.073 231.461 449.82 231.359C449.568 231.257 449.298 231.206 449.025 231.209ZM399 209.852C398.586 209.847 398.18 209.966 397.834 210.193C397.488 210.42 397.218 210.745 397.057 211.127C396.897 211.508 396.854 211.929 396.933 212.335C397.013 212.741 397.212 213.114 397.504 213.407C397.797 213.7 398.17 213.898 398.576 213.978C398.982 214.058 399.403 214.014 399.785 213.854C400.166 213.693 400.491 213.423 400.718 213.077C400.945 212.731 401.064 212.325 401.059 211.911C401.059 211.365 400.842 210.841 400.456 210.455C400.07 210.069 399.546 209.852 399 209.852ZM432.319 209.852C431.905 209.847 431.5 209.966 431.154 210.193C430.808 210.42 430.537 210.745 430.377 211.127C430.216 211.508 430.173 211.929 430.253 212.335C430.332 212.741 430.531 213.114 430.824 213.407C431.116 213.7 431.49 213.898 431.896 213.978C432.302 214.058 432.722 214.014 433.104 213.854C433.485 213.693 433.81 213.423 434.037 213.077C434.264 212.731 434.383 212.325 434.379 211.911C434.379 211.373 434.168 210.856 433.792 210.471C433.416 210.086 432.904 209.864 432.366 209.852H432.319ZM448.979 275.797C448.566 275.797 448.163 275.919 447.82 276.149C447.477 276.379 447.21 276.706 447.053 277.087C446.896 277.469 446.856 277.889 446.938 278.294C447.021 278.698 447.221 279.069 447.515 279.36C447.808 279.65 448.182 279.846 448.587 279.924C448.993 280.002 449.412 279.957 449.792 279.796C450.172 279.635 450.496 279.364 450.722 279.019C450.948 278.674 451.066 278.269 451.061 277.856C451.061 277.314 450.848 276.793 450.466 276.408C450.085 276.022 449.567 275.803 449.025 275.797H448.979ZM482.321 275.797C481.908 275.792 481.502 275.911 481.156 276.138C480.81 276.365 480.539 276.69 480.379 277.071C480.218 277.453 480.175 277.873 480.255 278.279C480.334 278.686 480.533 279.059 480.826 279.351C481.118 279.644 481.492 279.843 481.898 279.922C482.304 280.002 482.724 279.959 483.106 279.798C483.487 279.638 483.812 279.367 484.039 279.021C484.266 278.675 484.385 278.27 484.381 277.856C484.381 277.583 484.327 277.314 484.222 277.062C484.117 276.811 483.963 276.583 483.769 276.391C483.576 276.2 483.346 276.049 483.093 275.947C482.841 275.844 482.571 275.793 482.298 275.797H482.321ZM514.923 275.912C514.529 276.062 514.19 276.328 513.95 276.675C513.711 277.022 513.582 277.434 513.581 277.856C513.581 278.402 513.798 278.926 514.185 279.312C514.571 279.698 515.095 279.915 515.641 279.915C515.998 279.914 516.349 279.822 516.66 279.648C516.972 279.474 517.234 279.223 517.422 278.92L514.923 275.912ZM432.319 254.44C431.905 254.435 431.5 254.554 431.154 254.781C430.808 255.008 430.537 255.333 430.377 255.715C430.216 256.096 430.173 256.517 430.253 256.923C430.332 257.329 430.531 257.702 430.824 257.995C431.116 258.287 431.49 258.486 431.896 258.566C432.302 258.645 432.722 258.602 433.104 258.442C433.485 258.281 433.81 258.011 434.037 257.665C434.264 257.319 434.383 256.913 434.379 256.499C434.379 255.961 434.168 255.444 433.792 255.059C433.416 254.674 432.904 254.452 432.366 254.44H432.319ZM465.639 254.44C465.226 254.44 464.822 254.563 464.479 254.792C464.136 255.022 463.869 255.349 463.713 255.731C463.556 256.113 463.516 256.533 463.598 256.937C463.68 257.342 463.881 257.713 464.174 258.003C464.468 258.293 464.841 258.49 465.247 258.567C465.652 258.645 466.072 258.601 466.452 258.439C466.832 258.278 467.155 258.008 467.381 257.662C467.607 257.317 467.726 256.912 467.721 256.499C467.721 255.957 467.507 255.437 467.126 255.051C466.745 254.665 466.227 254.446 465.685 254.44H465.639ZM497.223 255.412C497.026 255.74 496.922 256.116 496.922 256.499C496.919 256.771 496.97 257.042 497.072 257.294C497.174 257.547 497.325 257.777 497.517 257.97C497.708 258.164 497.936 258.318 498.188 258.423C498.439 258.528 498.709 258.582 498.981 258.582C499.277 258.586 499.57 258.522 499.837 258.396C499.027 257.378 498.148 256.407 497.269 255.412H497.223ZM449.904 320.523C450.344 321.287 450.737 322.05 451.154 322.837C451.165 322.721 451.165 322.605 451.154 322.49C451.172 322.074 451.062 321.662 450.838 321.31C450.615 320.958 450.289 320.684 449.904 320.523ZM482.298 320.338C481.884 320.333 481.479 320.452 481.133 320.679C480.787 320.906 480.516 321.231 480.356 321.613C480.195 321.994 480.152 322.415 480.232 322.821C480.311 323.227 480.51 323.6 480.803 323.893C481.095 324.185 481.469 324.384 481.875 324.464C482.281 324.543 482.701 324.5 483.083 324.34C483.464 324.179 483.789 323.909 484.016 323.563C484.243 323.217 484.362 322.811 484.358 322.397C484.358 321.851 484.141 321.327 483.754 320.941C483.368 320.555 482.844 320.338 482.298 320.338ZM515.618 320.338C515.204 320.333 514.798 320.452 514.452 320.679C514.106 320.906 513.836 321.231 513.675 321.613C513.515 321.994 513.471 322.415 513.551 322.821C513.631 323.227 513.829 323.6 514.122 323.893C514.415 324.185 514.788 324.384 515.194 324.464C515.6 324.543 516.021 324.5 516.402 324.34C516.784 324.179 517.109 323.909 517.336 323.563C517.563 323.217 517.681 322.811 517.677 322.397C517.677 321.863 517.47 321.349 517.098 320.965C516.727 320.581 516.221 320.356 515.687 320.338H515.618ZM548.15 320.477C547.72 320.671 547.368 321.006 547.153 321.426C546.938 321.846 546.873 322.327 546.967 322.79C547.061 323.253 547.309 323.669 547.672 323.972C548.034 324.275 548.488 324.446 548.96 324.457C549.48 324.457 549.982 324.268 550.372 323.924C549.724 322.837 548.983 321.68 548.22 320.523L548.15 320.477ZM465.615 298.981C465.203 298.981 464.799 299.104 464.456 299.334C464.113 299.564 463.846 299.89 463.689 300.272C463.532 300.654 463.493 301.074 463.575 301.479C463.657 301.883 463.858 302.254 464.151 302.544C464.445 302.835 464.818 303.031 465.224 303.109C465.629 303.187 466.048 303.142 466.429 302.981C466.809 302.82 467.132 302.549 467.358 302.204C467.584 301.858 467.703 301.453 467.698 301.041C467.686 300.51 467.47 300.005 467.095 299.63C466.72 299.255 466.215 299.039 465.685 299.027L465.615 298.981ZM498.958 298.981C498.544 298.977 498.138 299.095 497.792 299.323C497.446 299.55 497.176 299.875 497.015 300.256C496.855 300.637 496.812 301.058 496.891 301.464C496.971 301.87 497.17 302.243 497.462 302.536C497.755 302.829 498.128 303.027 498.534 303.107C498.94 303.187 499.361 303.143 499.742 302.983C500.124 302.823 500.449 302.552 500.676 302.206C500.903 301.86 501.022 301.454 501.017 301.041C501.006 300.514 500.793 300.012 500.423 299.638C500.053 299.264 499.554 299.045 499.027 299.027L498.958 298.981ZM534.337 300.624L533.365 299.351C533.049 299.166 532.689 299.07 532.324 299.074C531.812 299.128 531.339 299.369 530.995 299.752C530.651 300.134 530.46 300.63 530.46 301.145C530.46 301.659 530.651 302.155 530.995 302.538C531.339 302.92 531.812 303.161 532.324 303.216C532.87 303.21 533.393 302.991 533.781 302.607C534.17 302.223 534.394 301.703 534.406 301.156C534.42 300.995 534.42 300.832 534.406 300.67L534.337 300.624ZM482.298 364.972C481.891 364.972 481.493 365.093 481.154 365.319C480.816 365.545 480.552 365.867 480.396 366.243C480.24 366.619 480.199 367.034 480.279 367.433C480.358 367.832 480.554 368.199 480.842 368.487C481.13 368.775 481.497 368.972 481.896 369.051C482.296 369.13 482.71 369.09 483.086 368.934C483.463 368.778 483.784 368.514 484.011 368.175C484.237 367.837 484.358 367.439 484.358 367.031C484.358 366.485 484.141 365.961 483.754 365.575C483.368 365.189 482.844 364.972 482.298 364.972ZM515.618 364.972C515.21 364.972 514.812 365.093 514.474 365.319C514.135 365.545 513.871 365.867 513.715 366.243C513.559 366.619 513.518 367.034 513.598 367.433C513.677 367.832 513.873 368.199 514.161 368.487C514.449 368.775 514.816 368.972 515.216 369.051C515.615 369.13 516.029 369.09 516.406 368.934C516.782 368.778 517.104 368.514 517.33 368.175C517.556 367.837 517.677 367.439 517.677 367.031C517.677 366.497 517.47 365.983 517.098 365.599C516.727 365.215 516.221 364.99 515.687 364.972H515.618ZM548.96 364.972C548.553 364.972 548.155 365.093 547.816 365.319C547.477 365.545 547.213 365.867 547.058 366.243C546.902 366.619 546.861 367.034 546.94 367.433C547.02 367.832 547.216 368.199 547.504 368.487C547.792 368.775 548.159 368.972 548.558 369.051C548.958 369.13 549.372 369.09 549.748 368.934C550.124 368.778 550.446 368.514 550.672 368.175C550.899 367.837 551.019 367.439 551.019 367.031C551.02 366.497 550.812 365.983 550.441 365.599C550.07 365.215 549.563 364.99 549.029 364.972H548.96ZM465.662 343.615C465.249 343.615 464.845 343.738 464.502 343.968C464.159 344.198 463.893 344.524 463.736 344.906C463.579 345.288 463.539 345.708 463.621 346.112C463.703 346.517 463.904 346.888 464.198 347.178C464.491 347.469 464.864 347.665 465.27 347.743C465.675 347.821 466.095 347.776 466.475 347.615C466.855 347.454 467.179 347.183 467.405 346.838C467.631 346.492 467.749 346.087 467.744 345.675C467.744 345.128 467.527 344.605 467.141 344.218C466.755 343.832 466.231 343.615 465.685 343.615H465.662ZM499.004 343.615C498.59 343.611 498.185 343.729 497.839 343.956C497.493 344.184 497.222 344.509 497.062 344.89C496.901 345.271 496.858 345.692 496.938 346.098C497.017 346.504 497.216 346.877 497.509 347.17C497.801 347.463 498.175 347.661 498.581 347.741C498.987 347.821 499.407 347.777 499.789 347.617C500.17 347.457 500.495 347.186 500.722 346.84C500.949 346.494 501.068 346.088 501.063 345.675C501.064 345.132 500.85 344.612 500.469 344.226C500.087 343.841 499.57 343.621 499.027 343.615H499.004ZM532.324 343.615C531.911 343.615 531.507 343.738 531.164 343.968C530.821 344.198 530.554 344.524 530.397 344.906C530.241 345.288 530.201 345.708 530.283 346.112C530.365 346.517 530.566 346.888 530.859 347.178C531.153 347.469 531.526 347.665 531.932 347.743C532.337 347.821 532.757 347.776 533.137 347.615C533.517 347.454 533.84 347.183 534.066 346.838C534.292 346.492 534.411 346.087 534.406 345.675C534.406 345.128 534.189 344.605 533.803 344.218C533.417 343.832 532.893 343.615 532.347 343.615H532.324ZM499.004 388.203C498.59 388.198 498.185 388.317 497.839 388.544C497.493 388.771 497.222 389.096 497.062 389.478C496.901 389.859 496.858 390.28 496.938 390.686C497.017 391.092 497.216 391.465 497.509 391.758C497.801 392.05 498.175 392.249 498.581 392.329C498.987 392.408 499.407 392.365 499.789 392.205C500.17 392.044 500.495 391.774 500.722 391.428C500.949 391.082 501.068 390.676 501.063 390.262C501.064 389.72 500.85 389.2 500.469 388.814C500.087 388.429 499.57 388.209 499.027 388.203H499.004ZM532.324 388.203C531.911 388.203 531.507 388.326 531.164 388.556C530.821 388.785 530.554 389.112 530.397 389.494C530.241 389.876 530.201 390.296 530.283 390.7C530.365 391.105 530.566 391.476 530.859 391.766C531.153 392.056 531.526 392.253 531.932 392.331C532.337 392.408 532.757 392.364 533.137 392.203C533.517 392.041 533.84 391.771 534.066 391.425C534.292 391.08 534.411 390.675 534.406 390.262C534.406 389.716 534.189 389.192 533.803 388.806C533.417 388.42 532.893 388.203 532.347 388.203H532.324Z" fill="white"/>
<path d="M487.157 380.197C481.488 371.404 476.143 362.334 470.729 353.356C465.315 344.379 459.946 335.355 454.671 326.284C444.259 308.352 434.587 290.027 425.262 271.516C419.986 261.034 414.618 250.691 409.597 240.001C409.435 239.654 408.88 240.001 408.996 240.256C413.855 252.596 419.084 264.736 424.684 276.676L424.452 276.375C423.203 274.686 421.953 272.997 420.727 271.284C418.297 267.906 416.099 264.459 413.785 260.918C413.623 260.641 413.184 260.918 413.346 261.196C415.849 266.012 418.678 270.65 421.814 275.079C423.347 277.149 425 279.127 426.766 281.003L426.928 281.141C429.496 286.463 432.111 291.762 434.864 297.014C444.468 315.671 455.002 333.834 466.425 351.436C469.665 356.364 472.927 361.27 476.328 366.106C479.73 370.942 483.27 375.616 486.88 380.382C486.926 380.683 487.342 380.498 487.157 380.197Z" fill="#263238"/>
<path d="M512.748 387.833C498.079 366.8 505.437 324.966 521.633 224.545C523.947 210.662 629.32 209.574 627.7 224.545C625.664 243.38 606.875 317.816 601.993 328.668C577.999 382.349 522.675 402.109 512.748 387.833Z" fill="#F7A9A0"/>
<path d="M624.275 237.502C628.649 226.257 648.756 163.922 649.728 148.119C650.7 132.315 650.352 86.6169 638.32 84.627C626.289 82.6371 625.34 96.0111 625.34 96.0111C625.34 96.0111 622.124 76.7368 609.837 75.8112C597.551 74.8857 596.741 95.7797 596.741 95.7797C596.741 95.7797 591.997 76.2277 579.665 76.2046C567.332 76.1814 570.224 97.2837 570.224 97.2837C570.224 97.2837 566.707 79.2126 556.549 83.4006C544.332 88.4911 554.559 121.093 552.13 138.447C551.575 142.404 535.285 217.58 535.285 217.58L624.275 237.502Z" fill="#F7A9A0"/>
<path d="M569.9 95.4789C577.374 119.473 576.495 131.251 570.108 155.13C569.993 155.616 570.664 155.893 570.826 155.431C579.202 132.593 582.395 117.969 571.057 95.0624C570.502 93.9286 569.553 94.3452 569.9 95.4789Z" fill="#263238"/>
<path d="M596.162 93.8823C601.739 119.473 600.906 132.269 596.162 157.791C596.162 158.138 596.718 158.3 596.81 157.929C603.752 133.31 606.552 118.594 597.62 93.8129C597.088 92.6791 595.908 92.7254 596.162 93.8823Z" fill="#263238"/>
<path d="M625.108 97.2837C628.718 122.458 628.394 136.619 620.48 160.683C620.434 160.8 620.436 160.93 620.486 161.045C620.536 161.16 620.63 161.25 620.746 161.296C620.863 161.342 620.993 161.34 621.108 161.29C621.223 161.24 621.314 161.147 621.36 161.03C631.795 137.174 632.327 119.635 625.848 97.2606C625.432 95.7334 624.877 95.7103 625.108 97.2837Z" fill="#263238"/>
<path d="M520.106 237.248C520.106 237.248 511.753 206.913 511.036 192.753C510.319 178.592 527.025 124.934 538.802 127.965C554.05 131.783 550.51 164.686 546.669 180.559C546.669 180.559 581.932 189.351 584.5 213.508C587.069 237.664 520.106 237.248 520.106 237.248Z" fill="#F7A9A0"/>
<path d="M542.689 130.302C554.073 143.792 547.687 164.316 545.003 180.003C544.953 180.233 544.958 180.471 545.019 180.697C545.08 180.924 545.195 181.132 545.354 181.305C545.513 181.478 545.712 181.609 545.933 181.689C546.153 181.769 546.39 181.794 546.623 181.762C561.154 186.39 580.312 197.242 585.033 212.629C585.063 212.711 585.122 212.78 585.198 212.823C585.275 212.866 585.364 212.88 585.45 212.864C585.536 212.847 585.614 212.8 585.669 212.732C585.724 212.663 585.752 212.578 585.75 212.49C582.927 195.275 564.925 183.104 548.728 179.032C551.621 162.974 557.128 142.01 542.689 130.186C542.712 130.117 542.597 130.21 542.689 130.302Z" fill="#263238"/>
<path d="M629.366 258.558L507.079 293.266C507.079 293.266 482.691 373.417 498.194 393.525C514.784 415.02 591.766 381.701 607.084 334.869L629.366 258.558Z" fill="#008A5D"/>
<path d="M584.408 277.856C584.408 278.263 584.287 278.661 584.061 279C583.834 279.339 583.513 279.602 583.136 279.758C582.76 279.914 582.346 279.955 581.947 279.876C581.547 279.796 581.18 279.6 580.892 279.312C580.604 279.024 580.408 278.657 580.329 278.258C580.249 277.858 580.29 277.444 580.446 277.068C580.602 276.691 580.866 276.37 581.204 276.144C581.543 275.917 581.941 275.796 582.348 275.796C582.895 275.796 583.418 276.013 583.805 276.4C584.191 276.786 584.408 277.31 584.408 277.856ZM615.668 275.796C615.255 275.797 614.851 275.919 614.508 276.149C614.165 276.379 613.899 276.706 613.742 277.087C613.585 277.469 613.545 277.889 613.627 278.294C613.709 278.698 613.91 279.069 614.204 279.36C614.497 279.65 614.87 279.846 615.276 279.924C615.681 280.002 616.101 279.957 616.481 279.796C616.861 279.635 617.184 279.364 617.41 279.019C617.637 278.673 617.755 278.269 617.75 277.856C617.75 277.583 617.696 277.314 617.591 277.062C617.486 276.811 617.332 276.583 617.139 276.391C616.945 276.2 616.715 276.049 616.463 275.947C616.21 275.844 615.94 275.793 615.668 275.796ZM515.687 320.338C515.273 320.333 514.867 320.452 514.521 320.679C514.175 320.906 513.905 321.231 513.744 321.613C513.584 321.994 513.54 322.415 513.62 322.821C513.7 323.227 513.898 323.6 514.191 323.893C514.484 324.185 514.857 324.384 515.263 324.464C515.669 324.543 516.09 324.5 516.471 324.34C516.853 324.179 517.178 323.909 517.405 323.563C517.632 323.217 517.751 322.811 517.746 322.397C517.746 321.851 517.529 321.327 517.143 320.941C516.757 320.555 516.233 320.338 515.687 320.338ZM549.029 320.338C548.615 320.333 548.209 320.452 547.864 320.679C547.518 320.906 547.247 321.231 547.087 321.613C546.926 321.994 546.883 322.415 546.962 322.821C547.042 323.227 547.241 323.6 547.534 323.893C547.826 324.185 548.199 324.384 548.605 324.464C549.012 324.543 549.432 324.5 549.814 324.34C550.195 324.179 550.52 323.909 550.747 323.563C550.974 323.217 551.093 322.811 551.088 322.397C551.088 321.851 550.871 321.327 550.485 320.941C550.099 320.555 549.575 320.338 549.029 320.338ZM582.348 320.338C581.935 320.333 581.529 320.452 581.183 320.679C580.837 320.906 580.566 321.231 580.406 321.613C580.245 321.994 580.202 322.415 580.282 322.821C580.361 323.227 580.56 323.6 580.853 323.893C581.145 324.185 581.519 324.384 581.925 324.464C582.331 324.543 582.751 324.5 583.133 324.34C583.514 324.179 583.839 323.909 584.066 323.563C584.293 323.217 584.412 322.811 584.408 322.397C584.408 321.851 584.191 321.327 583.805 320.941C583.418 320.555 582.895 320.338 582.348 320.338ZM532.346 298.981C531.933 298.981 531.53 299.104 531.187 299.334C530.844 299.564 530.577 299.89 530.42 300.272C530.263 300.654 530.223 301.074 530.306 301.479C530.388 301.883 530.589 302.254 530.882 302.544C531.176 302.835 531.549 303.031 531.954 303.109C532.36 303.187 532.779 303.142 533.159 302.981C533.539 302.82 533.863 302.549 534.089 302.204C534.315 301.858 534.433 301.453 534.429 301.04C534.417 300.498 534.191 299.983 533.801 299.606C533.411 299.229 532.889 299.021 532.346 299.027V298.981ZM565.689 298.981C565.275 298.977 564.869 299.095 564.523 299.322C564.177 299.55 563.907 299.875 563.746 300.256C563.586 300.637 563.543 301.058 563.622 301.464C563.702 301.87 563.901 302.243 564.193 302.536C564.486 302.829 564.859 303.027 565.265 303.107C565.671 303.187 566.092 303.143 566.473 302.983C566.855 302.823 567.18 302.552 567.407 302.206C567.634 301.86 567.753 301.454 567.748 301.04C567.742 300.766 567.681 300.495 567.569 300.245C567.457 299.994 567.297 299.768 567.096 299.581C566.896 299.393 566.66 299.248 566.402 299.153C566.144 299.058 565.87 299.015 565.596 299.027L565.689 298.981ZM599.008 298.981C598.595 298.981 598.192 299.104 597.849 299.334C597.506 299.564 597.239 299.89 597.082 300.272C596.925 300.654 596.885 301.074 596.967 301.479C597.05 301.883 597.25 302.254 597.544 302.544C597.837 302.835 598.211 303.031 598.616 303.109C599.022 303.187 599.441 303.142 599.821 302.981C600.201 302.82 600.525 302.549 600.751 302.204C600.977 301.858 601.095 301.453 601.09 301.04C601.078 300.498 600.853 299.983 600.463 299.606C600.073 299.229 599.55 299.021 599.008 299.027V298.981ZM515.71 364.926C515.302 364.926 514.904 365.046 514.566 365.273C514.227 365.499 513.963 365.821 513.807 366.197C513.651 366.573 513.611 366.987 513.69 367.387C513.769 367.786 513.966 368.153 514.254 368.441C514.542 368.729 514.908 368.925 515.308 369.005C515.707 369.084 516.121 369.043 516.498 368.887C516.874 368.732 517.196 368.468 517.422 368.129C517.648 367.79 517.769 367.392 517.769 366.985C517.757 366.443 517.531 365.927 517.142 365.55C516.752 365.174 516.229 364.966 515.687 364.972L515.71 364.926ZM549.052 364.926C548.645 364.926 548.247 365.046 547.908 365.273C547.569 365.499 547.305 365.821 547.15 366.197C546.994 366.573 546.953 366.987 547.032 367.387C547.112 367.786 547.308 368.153 547.596 368.441C547.884 368.729 548.251 368.925 548.65 369.005C549.05 369.084 549.464 369.043 549.84 368.887C550.217 368.732 550.538 368.468 550.764 368.129C550.991 367.79 551.111 367.392 551.111 366.985C551.099 366.443 550.874 365.927 550.484 365.55C550.094 365.174 549.571 364.966 549.029 364.972L549.052 364.926ZM582.371 364.926C581.964 364.926 581.566 365.046 581.227 365.273C580.889 365.499 580.625 365.821 580.469 366.197C580.313 366.573 580.272 366.987 580.352 367.387C580.431 367.786 580.627 368.153 580.915 368.441C581.203 368.729 581.57 368.925 581.97 369.005C582.369 369.084 582.783 369.043 583.16 368.887C583.536 368.732 583.858 368.468 584.084 368.129C584.31 367.79 584.431 367.392 584.431 366.985C584.419 366.443 584.193 365.927 583.803 365.55C583.413 365.174 582.891 364.966 582.348 364.972L582.371 364.926ZM499.073 343.569C498.659 343.564 498.254 343.683 497.908 343.91C497.562 344.137 497.291 344.462 497.131 344.844C496.97 345.225 496.927 345.646 497.007 346.052C497.086 346.458 497.285 346.831 497.578 347.124C497.87 347.416 498.244 347.615 498.65 347.695C499.056 347.774 499.476 347.731 499.858 347.571C500.239 347.41 500.564 347.14 500.791 346.794C501.018 346.448 501.137 346.042 501.133 345.628C501.127 345.358 501.067 345.091 500.958 344.844C500.849 344.596 500.692 344.372 500.497 344.185C500.301 343.998 500.071 343.852 499.819 343.754C499.566 343.656 499.297 343.609 499.027 343.615L499.073 343.569ZM532.393 343.569C531.98 343.569 531.576 343.692 531.233 343.922C530.89 344.151 530.623 344.478 530.466 344.86C530.31 345.242 530.27 345.662 530.352 346.066C530.434 346.471 530.635 346.842 530.928 347.132C531.222 347.422 531.595 347.619 532.001 347.697C532.406 347.774 532.826 347.73 533.206 347.569C533.586 347.407 533.909 347.137 534.135 346.791C534.361 346.446 534.48 346.041 534.475 345.628C534.469 345.356 534.409 345.087 534.298 344.838C534.188 344.589 534.029 344.364 533.831 344.177C533.633 343.99 533.4 343.844 533.145 343.747C532.89 343.651 532.619 343.606 532.346 343.615L532.393 343.569ZM565.735 343.569C565.321 343.564 564.915 343.683 564.569 343.91C564.223 344.137 563.953 344.462 563.792 344.844C563.632 345.225 563.589 345.646 563.668 346.052C563.748 346.458 563.947 346.831 564.239 347.124C564.532 347.416 564.905 347.615 565.311 347.695C565.717 347.774 566.138 347.731 566.519 347.571C566.901 347.41 567.226 347.14 567.453 346.794C567.68 346.448 567.799 346.042 567.794 345.628C567.789 345.35 567.727 345.075 567.612 344.821C567.497 344.567 567.332 344.339 567.126 344.151C566.921 343.963 566.679 343.818 566.416 343.726C566.153 343.634 565.874 343.596 565.596 343.615L565.735 343.569ZM599.054 343.569C598.641 343.569 598.238 343.692 597.895 343.922C597.552 344.151 597.285 344.478 597.128 344.86C596.971 345.242 596.931 345.662 597.014 346.066C597.096 346.471 597.297 346.842 597.59 347.132C597.884 347.422 598.257 347.619 598.662 347.697C599.068 347.774 599.487 347.73 599.867 347.569C600.247 347.407 600.571 347.137 600.797 346.791C601.023 346.446 601.141 346.041 601.137 345.628C601.131 345.356 601.071 345.087 600.96 344.838C600.85 344.589 600.691 344.364 600.493 344.177C600.295 343.99 600.062 343.844 599.807 343.747C599.552 343.651 599.28 343.606 599.008 343.615L599.054 343.569ZM499.073 388.157C498.659 388.152 498.254 388.271 497.908 388.498C497.562 388.725 497.291 389.05 497.131 389.431C496.97 389.813 496.927 390.233 497.007 390.64C497.086 391.046 497.285 391.419 497.578 391.711C497.87 392.004 498.244 392.203 498.65 392.283C499.056 392.362 499.476 392.319 499.858 392.158C500.239 391.998 500.564 391.727 500.791 391.381C501.018 391.036 501.137 390.63 501.133 390.216C501.127 389.945 501.067 389.679 500.958 389.431C500.849 389.184 500.692 388.96 500.497 388.773C500.301 388.586 500.071 388.44 499.819 388.342C499.566 388.244 499.297 388.197 499.027 388.203L499.073 388.157ZM532.393 388.157C531.98 388.157 531.576 388.279 531.233 388.509C530.89 388.739 530.623 389.066 530.466 389.448C530.31 389.829 530.27 390.249 530.352 390.654C530.434 391.058 530.635 391.429 530.928 391.72C531.222 392.01 531.595 392.207 532.001 392.284C532.406 392.362 532.826 392.317 533.206 392.156C533.586 391.995 533.909 391.725 534.135 391.379C534.361 391.034 534.48 390.629 534.475 390.216C534.469 389.943 534.409 389.675 534.298 389.426C534.188 389.177 534.029 388.952 533.831 388.765C533.633 388.578 533.4 388.431 533.145 388.335C532.89 388.239 532.619 388.194 532.346 388.203L532.393 388.157Z" fill="white"/>
<path d="M511.082 321.055C524.734 317.955 538.201 314.114 551.667 310.273C565.134 306.432 578.623 302.591 591.997 298.403C599.54 296.089 607.107 293.775 614.58 291.068C614.789 291.068 614.719 290.651 614.58 290.698C600.952 293.775 587.439 297.639 573.996 301.318C560.552 304.997 547.016 309 533.596 313.026C526.03 315.34 518.487 317.654 511.013 320.361C510.573 320.5 510.689 321.148 511.082 321.055Z" fill="#263238"/>
<path d="M511.43 291.924C509.532 292.109 507.635 292.502 505.761 292.873C505.618 292.914 505.488 292.991 505.382 293.096C505.277 293.201 505.2 293.331 505.159 293.474C503.077 300.601 501.596 307.936 500.115 315.201C498.634 322.467 497.361 329.547 496.181 336.766C495.533 340.63 494.978 344.541 494.539 348.335C492.178 353.056 490.741 358.185 490.304 363.445C490.304 363.506 490.329 363.565 490.372 363.608C490.415 363.652 490.474 363.676 490.536 363.676C490.597 363.676 490.656 363.652 490.699 363.608C490.743 363.565 490.767 363.506 490.767 363.445C491.347 358.777 492.553 354.208 494.353 349.863C493.184 359.388 493.442 369.035 495.117 378.485C492.803 364.37 496.274 349.654 498.588 335.771C499.745 328.83 501.064 321.888 502.429 314.947C503.794 308.005 505.39 301.179 506.663 294.261C508.283 293.636 509.926 293.035 511.476 292.294C511.502 292.269 511.522 292.238 511.535 292.204C511.547 292.17 511.551 292.133 511.547 292.097C511.542 292.061 511.529 292.027 511.509 291.997C511.488 291.967 511.461 291.942 511.43 291.924Z" fill="#263238"/>
<path d="M387.43 172.715C386.343 176.648 366.398 201.754 348.257 200.226C342.357 199.717 343.629 167.347 343.629 167.347L343.19 165.033L336.942 131.274L377.18 107.465L382.988 104.318C382.988 104.318 384.098 113.573 385.302 125.351C385.302 125.883 385.417 126.415 385.464 126.993C385.51 127.572 385.649 128.289 385.695 128.891C385.926 130.626 386.112 132.408 386.297 134.189C386.435 135.531 386.551 136.85 386.644 138.262C386.736 139.673 386.875 141.085 386.991 142.496C387.82 152.548 387.967 162.644 387.43 172.715Z" fill="#F7A9A0"/>
<path d="M385.348 125.281C381.612 134.558 375.901 142.91 368.613 149.758C361.325 156.607 352.635 161.787 343.144 164.94L336.896 131.181L377.18 107.465L382.988 104.318C382.988 104.318 384.099 113.619 385.348 125.281Z" fill="#263238"/>
<path d="M294.437 76.5517C288.213 136.503 323.43 147.008 336.364 148.281C348.095 149.484 388.217 152.099 400.596 93.0956C412.975 34.0927 387.06 12.2732 360.359 8.08511C333.657 3.89706 300.662 16.6 294.437 76.5517Z" fill="#F7A9A0"/>
<path d="M314.637 62.6223C316.018 62.5303 317.392 62.3681 318.756 62.1364C320.234 62.1666 321.68 61.7115 322.875 60.8407C323.203 60.4962 323.407 60.0513 323.453 59.5773C323.499 59.1033 323.385 58.6275 323.129 58.226C322.499 57.5231 321.694 56.999 320.796 56.7065C319.898 56.414 318.939 56.3635 318.016 56.5601C316.075 56.6664 314.244 57.4913 312.879 58.8739C312.612 59.2112 312.445 59.616 312.395 60.0431C312.346 60.4702 312.416 60.9027 312.599 61.2919C312.782 61.6812 313.069 62.0118 313.429 62.2468C313.789 62.4818 314.208 62.6118 314.637 62.6223Z" fill="#263238"/>
<path d="M357.628 62.2984C356.272 61.9909 354.936 61.6046 353.625 61.1414C352.163 60.9283 350.812 60.2367 349.784 59.1747C349.525 58.7829 349.402 58.3162 349.436 57.8474C349.469 57.3786 349.657 56.9341 349.969 56.5832C350.7 55.9796 351.578 55.582 352.514 55.4315C353.449 55.281 354.408 55.383 355.291 55.7271C357.168 56.1573 358.818 57.2708 359.919 58.8508C360.133 59.2235 360.238 59.6485 360.224 60.078C360.21 60.5075 360.077 60.9246 359.839 61.2825C359.601 61.6404 359.268 61.925 358.878 62.1045C358.487 62.2839 358.055 62.351 357.628 62.2984Z" fill="#263238"/>
<path d="M346.916 80.3C346.916 80.1612 347.216 80.5314 347.193 80.6934C346.661 84.7657 346.754 89.5323 350.317 91.2445C350.317 91.2445 350.317 91.499 350.317 91.4759C345.782 90.3884 345.782 84.0716 346.916 80.3Z" fill="#263238"/>
<path d="M350.988 76.3897C357.605 76.5517 356.819 89.7637 350.687 89.648C344.555 89.5323 345.434 76.274 350.988 76.3897Z" fill="#263238"/>
<path d="M353.533 77.2459C354.643 78.0557 355.708 79.444 357.073 79.6754C358.438 79.9068 359.988 78.611 361.122 77.3616C361.238 77.3616 361.33 77.3615 361.33 77.5235C361.214 80.0687 360.104 82.614 357.35 82.8222C354.597 83.0305 353.209 80.6935 352.723 78.1945C352.723 77.5929 353.093 76.9219 353.533 77.2459Z" fill="#263238"/>
<path d="M321.949 77.3847C321.949 77.2227 321.602 77.5466 321.602 77.7086C321.463 81.8272 320.607 86.5012 316.813 87.6118C316.674 87.6118 316.674 87.8432 316.813 87.8432C321.394 87.4036 322.458 81.2025 321.949 77.3847Z" fill="#263238"/>
<path d="M318.571 72.7569C312.023 71.8082 310.611 84.9971 316.673 85.8764C322.736 86.7557 324.078 73.5668 318.571 72.7569Z" fill="#263238"/>
<path d="M315.702 73.3354C314.568 73.9139 313.388 75.0708 312.161 75.0245C310.935 74.9783 309.848 73.428 309.015 71.9703C309.015 71.8083 308.83 71.9703 308.806 72.086C308.459 74.5849 309.015 77.3152 311.375 78.0557C313.735 78.7961 315.401 76.7368 316.257 74.3073C316.465 73.8445 316.188 73.1041 315.702 73.3354Z" fill="#263238"/>
<path d="M340.436 112.231C339.442 113.18 338.447 114.545 336.943 114.545C335.415 114.508 333.915 114.137 332.546 113.457C332.519 113.452 332.49 113.454 332.464 113.463C332.437 113.472 332.413 113.488 332.394 113.509C332.376 113.53 332.363 113.555 332.357 113.583C332.351 113.61 332.353 113.639 332.361 113.666C332.932 114.487 333.716 115.137 334.63 115.545C335.544 115.953 336.551 116.103 337.544 115.979C338.387 115.777 339.15 115.327 339.735 114.688C340.321 114.049 340.702 113.25 340.83 112.393C340.899 112.092 340.575 112.092 340.436 112.231Z" fill="#263238"/>
<path d="M324.355 96.2193C324.355 96.2193 323.083 102.282 322.875 105.174C322.875 105.428 323.546 105.613 324.517 105.752C324.517 105.752 324.517 105.752 324.633 105.752C327.077 106.382 329.647 106.324 332.06 105.585C334.474 104.846 336.636 103.454 338.308 101.564C338.539 101.31 338.192 100.986 337.915 101.148C334.057 103.396 329.58 104.345 325.142 103.855C324.98 103.045 327.664 93.5584 327.225 93.489C324.967 93.5224 322.725 93.8649 320.561 94.507C322.875 81.8272 327.155 69.587 329.238 56.9303C329.268 56.8352 329.26 56.7317 329.214 56.6428C329.169 56.5538 329.09 56.4866 328.995 56.4559C328.9 56.4253 328.796 56.4336 328.707 56.4792C328.618 56.5247 328.551 56.6038 328.52 56.6989C323.083 69.1705 320.144 83.7246 317.437 96.7746C317.067 98.3943 323.175 96.6358 324.355 96.2193Z" fill="#263238"/>
<path d="M325.512 104.688C326.939 107.091 328.964 109.084 331.389 110.473C332.732 111.201 334.274 111.477 335.786 111.259C339.094 110.797 339.511 107.881 339.21 105.29C339.046 103.922 338.719 102.578 338.238 101.287C334.468 103.749 330.009 104.941 325.512 104.688Z" fill="#263238"/>
<path d="M331.389 110.473C332.732 111.201 334.274 111.476 335.785 111.259C339.094 110.796 339.511 107.881 339.21 105.289C337.515 105.156 335.824 105.594 334.406 106.533C332.989 107.472 331.927 108.859 331.389 110.473Z" fill="#FF9CBD"/>
<path d="M398.098 89.6248C384.215 88.6299 386.181 66.8566 386.181 66.8566C386.181 66.8566 370.632 64.1495 371.581 38.7898C371.581 38.7898 362.789 53.4364 341.316 54.7784C336.688 55.0792 352.885 44.6669 352.885 44.6669C352.885 44.6669 331.181 58.8739 298.209 49.9193C295.895 49.2946 306.169 15.0266 333.426 5.12339C360.683 -4.77985 383.798 4.03586 398.676 21.945C398.676 21.945 417.187 32.4036 417.858 50.8217C418.529 69.2399 403.466 90.0182 398.098 89.6248Z" fill="#263238"/>
<path d="M408.764 80.3695C413.362 72.7935 416.029 64.204 416.529 55.3561C417.029 46.5082 415.348 37.6729 411.634 29.627C398.954 1.35182 353.464 -9.8703 323.453 10.1444C323.453 10.1444 375.052 0.889048 392.498 24.1663C409.944 47.4435 408.764 80.3695 408.764 80.3695Z" fill="#008A5D"/>
<path d="M390.277 95.4326C390.277 95.4326 403.743 76.9219 412.189 81.5495C420.634 86.1772 410.314 113.504 400.226 117.044C398.966 117.591 397.608 117.877 396.234 117.886C394.86 117.894 393.498 117.624 392.232 117.092C390.965 116.56 389.819 115.778 388.862 114.791C387.906 113.804 387.159 112.635 386.667 111.352L390.277 95.4326Z" fill="#F7A9A0"/>
<path d="M409.042 89.3702C409.204 89.3702 409.227 89.5785 409.042 89.6479C401.962 92.3551 398.167 98.9033 395.46 105.521C397.589 102.976 400.458 101.587 403.905 104.133C404.091 104.271 403.905 104.549 403.697 104.503C402.467 104.085 401.138 104.061 399.894 104.435C398.65 104.808 397.553 105.56 396.756 106.585C395.441 108.299 394.309 110.144 393.378 112.092C393.03 112.717 391.897 112.37 392.151 111.653V111.491C392.221 102.536 399.393 90.1107 409.042 89.3702Z" fill="#263238"/>
</svg>
